
<svg
  version="1.0"
  xmlns="http://www.w3.org/2000/svg"
  xmlns:xlink="http://www.w3.org/1999/xlink"
  width="2400"
  height="1800"
>
  
  <rect
    x="0"
    y="0"
    width="100%"
    height="100%"
    fill="rgba(255,255,255,0)"
    fill-opacity="1"
  ></rect>
  <svg
    version="1.0"
    xmlns="http://www.w3.org/2000/svg"
    xmlns:xlink="http://www.w3.org/1999/xlink"
    x="0"
    y="0"
    width="2400"
    height="1800"
    viewBox="0 0 340.000000 250.000000"
    preserveAspectRatio="xMidYMid meet"
    color-interpolation-filters="sRGB"
  >
    <defs><linearGradient id="92" x1="0%" y1="0%" x2="100%" y2="0%"><stop offset="0%" stop-color="#fa71cd"/> <stop offset="100%" stop-color="#9b59b6"/></linearGradient><linearGradient id="93" x1="0%" y1="0%" x2="100%" y2="0%"><stop offset="0%" stop-color="#f9d423"/> <stop offset="100%" stop-color="#f83600"/></linearGradient><linearGradient id="94" x1="0%" y1="0%" x2="100%" y2="0%"><stop offset="0%" stop-color="#0064d2"/> <stop offset="100%" stop-color="#1cb0f6"/></linearGradient><linearGradient id="95" x1="0%" y1="0%" x2="100%" y2="0%"><stop offset="0%" stop-color="#f00978"/> <stop offset="100%" stop-color="#3f51b1"/></linearGradient><linearGradient id="96" x1="0%" y1="0%" x2="100%" y2="0%"><stop offset="0%" stop-color="#7873f5"/> <stop offset="100%" stop-color="#ec77ab"/></linearGradient><linearGradient id="97" x1="0%" y1="0%" x2="100%" y2="0%"><stop offset="0%" stop-color="#f9d423"/> <stop offset="100%" stop-color="#e14fad"/></linearGradient><linearGradient id="98" x1="0%" y1="0%" x2="100%" y2="0%"><stop offset="0%" stop-color="#009efd"/> <stop offset="100%" stop-color="#2af598"/></linearGradient><linearGradient id="99" x1="0%" y1="0%" x2="100%" y2="0%"><stop offset="0%" stop-color="#ffcc00"/> <stop offset="100%" stop-color="#00b140"/></linearGradient><linearGradient id="100" x1="0%" y1="0%" x2="100%" y2="0%"><stop offset="0%" stop-color="#d51007"/> <stop offset="100%" stop-color="#ff8177"/></linearGradient><linearGradient id="102" x1="0%" y1="0%" x2="100%" y2="0%"><stop offset="0%" stop-color="#a2b6df"/> <stop offset="100%" stop-color="#0c3483"/></linearGradient><linearGradient id="103" x1="0%" y1="0%" x2="100%" y2="0%"><stop offset="0%" stop-color="#7ac5d8"/> <stop offset="100%" stop-color="#eea2a2"/></linearGradient><linearGradient id="104" x1="0%" y1="0%" x2="100%" y2="0%"><stop offset="0%" stop-color="#00ecbc"/> <stop offset="100%" stop-color="#007adf"/></linearGradient><linearGradient id="105" x1="0%" y1="0%" x2="100%" y2="0%"><stop offset="0%" stop-color="#b88746"/> <stop offset="100%" stop-color="#fdf5a6"/></linearGradient></defs> <g class="iconmbgsvg" transform="translate(65.68647766113281,63.70096206665039)"><g fill="#00c9ff" hollow-target="textRect"><g transform="translate(43.06352233886719,0)" mask="url(#03b7d570-db3a-4358-ad0d-8c303c49184b)"><g><rect fill="#00c9ff" fill-opacity="0" stroke-width="2" x="0" y="0" width="122.5" height="122.59807846277022" class="image-rect"/> <svg x="0" y="0" width="122.5" height="122.59807846277022" filtersec="colorsb3188693421" class="image-svg-svg primary" style="overflow: visible;"><svg fill="#000000" xmlns="http://www.w3.org/2000/svg" viewBox="5.015323638916016 4.975105285644531 89.96699523925781 90.03902435302734" x="0px" y="0px"><path d="m 49.998819,4.9751055 c -24.821867,0 -44.9834934,20.1710675 -44.9834934,45.0195135 0,24.848447 20.1616264,45.019514 44.9834934,45.019514 24.821866,0 44.983493,-20.171067 44.983493,-45.019514 0,-24.848446 -20.161627,-45.0195135 -44.983493,-45.0195135 z m 0,3.0318545 c 23.226908,0 42.019464,18.787331 42.019464,41.987659 0,23.200328 -18.792556,41.987659 -42.019464,41.987659 -23.226908,0 -42.0194648,-18.787331 -42.0194648,-41.987659 0,-23.200328 18.7925568,-41.987659 42.0194648,-41.987659 z" color="#000"/></svg></svg> </g><rect v-gra="id" width="134.5" height="134.59807586669922" transform="translate(-6, -6)" style="pointer-events:none;" fill="url(#aktCUNU8ZPEGRmEgMK_Ry)"/></g> <g transform="translate(0,38.291038513183594)"><g fill-rule="" class="tp-name" transform="translate(0,0)" fill="url(#a6756850-8307-482a-8e41-e07853bafebb)"><g transform="scale(1)"><g><path d="M5.26-29.2L24.61-29.2 24.61-31.5 2.88-31.5 2.88 0 25.15 0 25.15-2.34 5.26-2.34 5.26-14.76 23.71-14.76 23.71-16.96 5.26-16.96ZM30.11-22.23L30.11 0 32.31 0 32.31-12.38C32.31-16.96 35.5-20.43 40.09-20.47 44.91-20.52 48.02-17.82 48.02-12.78L48.02 0 50.22 0 50.22-12.82C50.22-18.99 46.13-22.63 40.19-22.63 37.08-22.59 33.98-21.33 32.27-18.27L32.27-22.23ZM72.58-19.62C70.38-21.69 67.54-22.59 64.3-22.59 59.8-22.63 55.44-20.75 55.48-16.38 55.53-11.92 59.8-11.12 64.13-10.39 67.77-9.81 71.46-9.18 71.37-5.98 71.23-2.48 67.14-1.75 64.44-1.75 61.47-1.75 58.14-2.88 56.29-5.54L54.67-4.09C56.61-1.13 60.48 0.36 64.39 0.36 68.31 0.36 73.39-0.94 73.53-5.85 73.75-11.03 68.31-11.7 64.35-12.38 61.56-12.87 57.69-13.46 57.6-16.43 57.51-19.26 60.84-20.56 64.3-20.52 66.78-20.52 68.98-20.16 71.23-18.18ZM88.47 0.32C92.02 0.32 95.89-1.13 98.05-3.96L96.48-5.22C94.81-3.01 91.39-1.84 88.47-1.84 83.88-1.84 79.88-4.86 79.42-10.08L99.45-10.08C100.3-18.77 94.72-22.59 88.47-22.59 82.21-22.59 77.17-17.77 77.17-11.12 77.17-4.05 82.21 0.32 88.47 0.32ZM79.42-12.01C79.92-17.46 83.88-20.56 88.47-20.56 93.82-20.56 97.42-17.5 97.47-12.01ZM105.16-31.5L105.16 0 107.37 0 107.37-31.5ZM132.71-22.23L132.71-17.37C130.86-20.84 127.22-22.5 123.62-22.5 117.41-22.5 112.32-17.91 112.32-11.12 112.32-4.32 117.41 0.36 123.62 0.36 127.22 0.36 130.55-1.26 132.71-4.72L132.71 0 134.91 0C134.91-7.42 134.91-14.8 134.91-22.23ZM123.62-20.38C135.99-20.38 135.99-1.8 123.62-1.8 118.58-1.8 114.53-5.54 114.53-11.12 114.53-16.7 118.58-20.38 123.62-20.38ZM150.93-20.47C156.06-20.47 160.02-16.7 160.02-11.16 160.02-5.63 156.15-1.8 150.93-1.8 145.94-1.8 141.84-4.95 141.84-11.12 141.84-17.37 145.94-20.47 150.93-20.47ZM160.07-31.5L160.07-17.37C158.27-20.97 154.67-22.59 150.84-22.59 144.63-22.59 139.68-18.45 139.68-11.12 139.68-3.73 144.59 0.36 150.8 0.36 154.58 0.36 158.22-1.53 160.07-4.91L160.07 0 162.23 0 162.23-31.5ZM188.15 0L188.15-22.27 185.94-22.27 185.94-9.9C185.94-5.31 182.75-1.84 178.16-1.8 173.34-1.75 170.24-4.46 170.24-9.49L170.24-22.27 168.03-22.27 168.03-9.45C168.03-3.28 172.13 0.36 178.07 0.36 181.17 0.32 184.28-0.94 185.99-4L185.99 0ZM210.56-19.62C208.35-21.69 205.52-22.59 202.28-22.59 197.78-22.63 193.41-20.75 193.46-16.38 193.5-11.92 197.78-11.12 202.1-10.39 205.74-9.81 209.43-9.18 209.34-5.98 209.21-2.48 205.11-1.75 202.41-1.75 199.44-1.75 196.11-2.88 194.27-5.54L192.65-4.09C194.58-1.13 198.45 0.36 202.37 0.36 206.28 0.36 211.37-0.94 211.5-5.85 211.73-11.03 206.28-11.7 202.32-12.38 199.53-12.87 195.66-13.46 195.57-16.43 195.48-19.26 198.81-20.56 202.28-20.52 204.75-20.52 206.96-20.16 209.21-18.18Z" transform="translate(-2.880000114440918, 31.5)"/></g> </g></g> <g fill-rule="" class="tp-slogan" fill="#ffffff" transform="translate(71.60352325439453,36.86000061035156)"> <g transform="scale(1, 1)"><g transform="scale(1)"><path d="M1.08 0L1.08-7.87L2.08-7.87L2.08-0.85L5.52-0.85L5.52 0L1.08 0ZM10.93-3.20L13.30-3.20L12.92-4.40Q12.71-5.06 12.52-5.72Q12.32-6.37 12.13-7.06L12.13-7.06L12.08-7.06Q11.90-6.37 11.71-5.72Q11.52-5.06 11.30-4.40L11.30-4.40L10.93-3.20ZM14.29 0L13.55-2.40L10.68-2.40L9.92 0L8.90 0L11.57-7.87L12.70-7.87L15.36 0L14.29 0ZM19.48 0L19.48-7.87L21.82-7.87Q22.42-7.87 22.91-7.76Q23.41-7.66 23.77-7.43Q24.12-7.20 24.32-6.83Q24.52-6.47 24.52-5.95L24.52-5.95Q24.52-5.36 24.18-4.89Q23.84-4.42 23.15-4.24L23.15-4.24L23.15-4.19Q24.01-4.06 24.49-3.59Q24.97-3.12 24.97-2.30L24.97-2.30Q24.97-1.73 24.76-1.30Q24.54-0.86 24.14-0.58Q23.75-0.29 23.20-0.14Q22.64 0 21.98 0L21.98 0L19.48 0ZM20.47-4.51L21.64-4.51Q22.66-4.51 23.09-4.86Q23.53-5.21 23.53-5.87L23.53-5.87Q23.53-6.52 23.07-6.80Q22.61-7.08 21.68-7.08L21.68-7.08L20.47-7.08L20.47-4.51ZM20.47-0.79L21.84-0.79Q22.86-0.79 23.42-1.17Q23.99-1.55 23.99-2.35L23.99-2.35Q23.99-3.08 23.44-3.43Q22.88-3.77 21.84-3.77L21.84-3.77L20.47-3.77L20.47-0.79ZM28.79-1.02L29.39-1.72Q29.81-1.27 30.38-1.00Q30.95-0.73 31.56-0.73L31.56-0.73Q32.34-0.73 32.77-1.09Q33.20-1.44 33.20-2.02L33.20-2.02Q33.20-2.32 33.10-2.53Q33-2.74 32.83-2.89Q32.65-3.04 32.41-3.16Q32.17-3.28 31.90-3.41L31.90-3.41L30.77-3.90Q30.49-4.02 30.20-4.19Q29.92-4.36 29.69-4.60Q29.46-4.84 29.32-5.17Q29.17-5.50 29.17-5.93L29.17-5.93Q29.17-6.37 29.36-6.76Q29.54-7.14 29.87-7.42Q30.20-7.70 30.65-7.86Q31.10-8.02 31.64-8.02L31.64-8.02Q32.35-8.02 32.95-7.75Q33.55-7.48 33.97-7.04L33.97-7.04L33.43-6.40Q33.07-6.74 32.63-6.94Q32.20-7.14 31.64-7.14L31.64-7.14Q30.98-7.14 30.58-6.83Q30.18-6.53 30.18-5.99L30.18-5.99Q30.18-5.70 30.29-5.50Q30.41-5.30 30.60-5.15Q30.79-5.00 31.02-4.89Q31.25-4.78 31.49-4.68L31.49-4.68L32.60-4.20Q32.94-4.06 33.24-3.87Q33.54-3.68 33.76-3.44Q33.97-3.19 34.10-2.86Q34.22-2.53 34.22-2.10L34.22-2.10Q34.22-1.63 34.04-1.22Q33.85-0.82 33.50-0.51Q33.16-0.20 32.66-0.03Q32.17 0.14 31.55 0.14L31.55 0.14Q30.72 0.14 30.01-0.17Q29.30-0.48 28.79-1.02L28.79-1.02ZM44.20 0L44.20-7.87L45.19-7.87L45.19 0L44.20 0ZM50.35 0L50.35-7.87L51.38-7.87L54.23-2.93L55.08-1.30L55.13-1.30Q55.09-1.90 55.05-2.54Q55.01-3.18 55.01-3.80L55.01-3.80L55.01-7.87L55.96-7.87L55.96 0L54.92 0L52.07-4.96L51.22-6.58L51.17-6.58Q51.22-5.98 51.26-5.36Q51.30-4.74 51.30-4.12L51.30-4.12L51.30 0L50.35 0ZM60.66-3.94L60.66-3.94Q60.66-4.88 60.92-5.64Q61.19-6.40 61.66-6.92Q62.12-7.45 62.77-7.73Q63.41-8.02 64.16-8.02L64.16-8.02Q64.88-8.02 65.42-7.72Q65.96-7.43 66.31-7.04L66.31-7.04L65.75-6.41Q65.44-6.74 65.06-6.94Q64.68-7.14 64.18-7.14L64.18-7.14Q63.61-7.14 63.16-6.92Q62.70-6.70 62.38-6.28Q62.05-5.87 61.87-5.28Q61.69-4.69 61.69-3.96L61.69-3.96Q61.69-3.22 61.87-2.62Q62.04-2.03 62.35-1.61Q62.66-1.19 63.11-0.96Q63.56-0.73 64.13-0.73L64.13-0.73Q64.70-0.73 65.13-0.96Q65.56-1.19 65.94-1.61L65.94-1.61L66.50-1.00Q66.04-0.46 65.45-0.16Q64.86 0.14 64.10 0.14L64.10 0.14Q63.36 0.14 62.73-0.13Q62.10-0.41 61.64-0.93Q61.18-1.45 60.92-2.21Q60.66-2.98 60.66-3.94Z" transform="translate(-1.08, 8.016)"/></g></g></g></g></g></g><mask id="e41760f2-b04e-4f4e-acea-e7e37d3b3721"><g fill="white"><g><rect fill-opacity="1" stroke-width="2" x="0" y="0" width="122.5" height="122.59807846277022" class="image-rect"/> <svg x="0" y="0" width="122.5" height="122.59807846277022" filtersec="colorsb3188693421" class="image-svg-svg primary" style="overflow: visible;"><svg xmlns="http://www.w3.org/2000/svg" viewBox="5.015323638916016 4.975105285644531 89.96699523925781 90.03902435302734" x="0px" y="0px"><path d="m 49.998819,4.9751055 c -24.821867,0 -44.9834934,20.1710675 -44.9834934,45.0195135 0,24.848447 20.1616264,45.019514 44.9834934,45.019514 24.821866,0 44.983493,-20.171067 44.983493,-45.019514 0,-24.848446 -20.161627,-45.0195135 -44.983493,-45.0195135 z m 0,3.0318545 c 23.226908,0 42.019464,18.787331 42.019464,41.987659 0,23.200328 -18.792556,41.987659 -42.019464,41.987659 -23.226908,0 -42.0194648,-18.787331 -42.0194648,-41.987659 0,-23.200328 18.7925568,-41.987659 42.0194648,-41.987659 z" color="#000"/></svg></svg> </g></g> <g transform="translate(-43.06352233886719,38.291038513183594)"><rect fill="black" fill-opacity="1" x="-3.5" y="-3.5" width="215.62704467773438" height="38.86000061035156"/><rect fill="black" fill-opacity="1" x="-3.5" y="-3.5" transform="translate(71.60352325439453,36.86000061035156)" width="72.41999816894531" height="15.160000801086426"/></g><g transform="translate(-43.06352233886719,38.291038513183594)" fill="black"><g fill-rule="" class="tp-name" transform="translate(0,0)"><g transform="scale(1)"><g><path d="M5.26-29.2L24.61-29.2 24.61-31.5 2.88-31.5 2.88 0 25.15 0 25.15-2.34 5.26-2.34 5.26-14.76 23.71-14.76 23.71-16.96 5.26-16.96ZM30.11-22.23L30.11 0 32.31 0 32.31-12.38C32.31-16.96 35.5-20.43 40.09-20.47 44.91-20.52 48.02-17.82 48.02-12.78L48.02 0 50.22 0 50.22-12.82C50.22-18.99 46.13-22.63 40.19-22.63 37.08-22.59 33.98-21.33 32.27-18.27L32.27-22.23ZM72.58-19.62C70.38-21.69 67.54-22.59 64.3-22.59 59.8-22.63 55.44-20.75 55.48-16.38 55.53-11.92 59.8-11.12 64.13-10.39 67.77-9.81 71.46-9.18 71.37-5.98 71.23-2.48 67.14-1.75 64.44-1.75 61.47-1.75 58.14-2.88 56.29-5.54L54.67-4.09C56.61-1.13 60.48 0.36 64.39 0.36 68.31 0.36 73.39-0.94 73.53-5.85 73.75-11.03 68.31-11.7 64.35-12.38 61.56-12.87 57.69-13.46 57.6-16.43 57.51-19.26 60.84-20.56 64.3-20.52 66.78-20.52 68.98-20.16 71.23-18.18ZM88.47 0.32C92.02 0.32 95.89-1.13 98.05-3.96L96.48-5.22C94.81-3.01 91.39-1.84 88.47-1.84 83.88-1.84 79.88-4.86 79.42-10.08L99.45-10.08C100.3-18.77 94.72-22.59 88.47-22.59 82.21-22.59 77.17-17.77 77.17-11.12 77.17-4.05 82.21 0.32 88.47 0.32ZM79.42-12.01C79.92-17.46 83.88-20.56 88.47-20.56 93.82-20.56 97.42-17.5 97.47-12.01ZM105.16-31.5L105.16 0 107.37 0 107.37-31.5ZM132.71-22.23L132.71-17.37C130.86-20.84 127.22-22.5 123.62-22.5 117.41-22.5 112.32-17.91 112.32-11.12 112.32-4.32 117.41 0.36 123.62 0.36 127.22 0.36 130.55-1.26 132.71-4.72L132.71 0 134.91 0C134.91-7.42 134.91-14.8 134.91-22.23ZM123.62-20.38C135.99-20.38 135.99-1.8 123.62-1.8 118.58-1.8 114.53-5.54 114.53-11.12 114.53-16.7 118.58-20.38 123.62-20.38ZM150.93-20.47C156.06-20.47 160.02-16.7 160.02-11.16 160.02-5.63 156.15-1.8 150.93-1.8 145.94-1.8 141.84-4.95 141.84-11.12 141.84-17.37 145.94-20.47 150.93-20.47ZM160.07-31.5L160.07-17.37C158.27-20.97 154.67-22.59 150.84-22.59 144.63-22.59 139.68-18.45 139.68-11.12 139.68-3.73 144.59 0.36 150.8 0.36 154.58 0.36 158.22-1.53 160.07-4.91L160.07 0 162.23 0 162.23-31.5ZM188.15 0L188.15-22.27 185.94-22.27 185.94-9.9C185.94-5.31 182.75-1.84 178.16-1.8 173.34-1.75 170.24-4.46 170.24-9.49L170.24-22.27 168.03-22.27 168.03-9.45C168.03-3.28 172.13 0.36 178.07 0.36 181.17 0.32 184.28-0.94 185.99-4L185.99 0ZM210.56-19.62C208.35-21.69 205.52-22.59 202.28-22.59 197.78-22.63 193.41-20.75 193.46-16.38 193.5-11.92 197.78-11.12 202.1-10.39 205.74-9.81 209.43-9.18 209.34-5.98 209.21-2.48 205.11-1.75 202.41-1.75 199.44-1.75 196.11-2.88 194.27-5.54L192.65-4.09C194.58-1.13 198.45 0.36 202.37 0.36 206.28 0.36 211.37-0.94 211.5-5.85 211.73-11.03 206.28-11.7 202.32-12.38 199.53-12.87 195.66-13.46 195.57-16.43 195.48-19.26 198.81-20.56 202.28-20.52 204.75-20.52 206.96-20.16 209.21-18.18Z" transform="translate(-2.880000114440918, 31.5)"/></g> </g></g> <g fill-rule="" class="tp-slogan" transform="translate(71.60352325439453,36.86000061035156)"> <g transform="scale(1, 1)"><g transform="scale(1)"><path d="M1.08 0L1.08-7.87L2.08-7.87L2.08-0.85L5.52-0.85L5.52 0L1.08 0ZM10.93-3.20L13.30-3.20L12.92-4.40Q12.71-5.06 12.52-5.72Q12.32-6.37 12.13-7.06L12.13-7.06L12.08-7.06Q11.90-6.37 11.71-5.72Q11.52-5.06 11.30-4.40L11.30-4.40L10.93-3.20ZM14.29 0L13.55-2.40L10.68-2.40L9.92 0L8.90 0L11.57-7.87L12.70-7.87L15.36 0L14.29 0ZM19.48 0L19.48-7.87L21.82-7.87Q22.42-7.87 22.91-7.76Q23.41-7.66 23.77-7.43Q24.12-7.20 24.32-6.83Q24.52-6.47 24.52-5.95L24.52-5.95Q24.52-5.36 24.18-4.89Q23.84-4.42 23.15-4.24L23.15-4.24L23.15-4.19Q24.01-4.06 24.49-3.59Q24.97-3.12 24.97-2.30L24.97-2.30Q24.97-1.73 24.76-1.30Q24.54-0.86 24.14-0.58Q23.75-0.29 23.20-0.14Q22.64 0 21.98 0L21.98 0L19.48 0ZM20.47-4.51L21.64-4.51Q22.66-4.51 23.09-4.86Q23.53-5.21 23.53-5.87L23.53-5.87Q23.53-6.52 23.07-6.80Q22.61-7.08 21.68-7.08L21.68-7.08L20.47-7.08L20.47-4.51ZM20.47-0.79L21.84-0.79Q22.86-0.79 23.42-1.17Q23.99-1.55 23.99-2.35L23.99-2.35Q23.99-3.08 23.44-3.43Q22.88-3.77 21.84-3.77L21.84-3.77L20.47-3.77L20.47-0.79ZM28.79-1.02L29.39-1.72Q29.81-1.27 30.38-1.00Q30.95-0.73 31.56-0.73L31.56-0.73Q32.34-0.73 32.77-1.09Q33.20-1.44 33.20-2.02L33.20-2.02Q33.20-2.32 33.10-2.53Q33-2.74 32.83-2.89Q32.65-3.04 32.41-3.16Q32.17-3.28 31.90-3.41L31.90-3.41L30.77-3.90Q30.49-4.02 30.20-4.19Q29.92-4.36 29.69-4.60Q29.46-4.84 29.32-5.17Q29.17-5.50 29.17-5.93L29.17-5.93Q29.17-6.37 29.36-6.76Q29.54-7.14 29.87-7.42Q30.20-7.70 30.65-7.86Q31.10-8.02 31.64-8.02L31.64-8.02Q32.35-8.02 32.95-7.75Q33.55-7.48 33.97-7.04L33.97-7.04L33.43-6.40Q33.07-6.74 32.63-6.94Q32.20-7.14 31.64-7.14L31.64-7.14Q30.98-7.14 30.58-6.83Q30.18-6.53 30.18-5.99L30.18-5.99Q30.18-5.70 30.29-5.50Q30.41-5.30 30.60-5.15Q30.79-5.00 31.02-4.89Q31.25-4.78 31.49-4.68L31.49-4.68L32.60-4.20Q32.94-4.06 33.24-3.87Q33.54-3.68 33.76-3.44Q33.97-3.19 34.10-2.86Q34.22-2.53 34.22-2.10L34.22-2.10Q34.22-1.63 34.04-1.22Q33.85-0.82 33.50-0.51Q33.16-0.20 32.66-0.03Q32.17 0.14 31.55 0.14L31.55 0.14Q30.72 0.14 30.01-0.17Q29.30-0.48 28.79-1.02L28.79-1.02ZM44.20 0L44.20-7.87L45.19-7.87L45.19 0L44.20 0ZM50.35 0L50.35-7.87L51.38-7.87L54.23-2.93L55.08-1.30L55.13-1.30Q55.09-1.90 55.05-2.54Q55.01-3.18 55.01-3.80L55.01-3.80L55.01-7.87L55.96-7.87L55.96 0L54.92 0L52.07-4.96L51.22-6.58L51.17-6.58Q51.22-5.98 51.26-5.36Q51.30-4.74 51.30-4.12L51.30-4.12L51.30 0L50.35 0ZM60.66-3.94L60.66-3.94Q60.66-4.88 60.92-5.64Q61.19-6.40 61.66-6.92Q62.12-7.45 62.77-7.73Q63.41-8.02 64.16-8.02L64.16-8.02Q64.88-8.02 65.42-7.72Q65.96-7.43 66.31-7.04L66.31-7.04L65.75-6.41Q65.44-6.74 65.06-6.94Q64.68-7.14 64.18-7.14L64.18-7.14Q63.61-7.14 63.16-6.92Q62.70-6.70 62.38-6.28Q62.05-5.87 61.87-5.28Q61.69-4.69 61.69-3.96L61.69-3.96Q61.69-3.22 61.87-2.62Q62.04-2.03 62.35-1.61Q62.66-1.19 63.11-0.96Q63.56-0.73 64.13-0.73L64.13-0.73Q64.70-0.73 65.13-0.96Q65.56-1.19 65.94-1.61L65.94-1.61L66.50-1.00Q66.04-0.46 65.45-0.16Q64.86 0.14 64.10 0.14L64.10 0.14Q63.36 0.14 62.73-0.13Q62.10-0.41 61.64-0.93Q61.18-1.45 60.92-2.21Q60.66-2.98 60.66-3.94Z" transform="translate(-1.08, 8.016)"/></g></g></g></g></mask><defs v-gra="od"><linearGradient x1="0" y1="1" x2="0" y2="0" id="a6756850-8307-482a-8e41-e07853bafebb"><stop offset="0%" stop-color="#00c9ff"/><stop offset="100%" stop-color="#92fe9d"/></linearGradient><filter id="42443b3f1de60f6b6fd3b6a9844b4764" filterUnits="objectBoundingBox"><feColorMatrix type="matrix" values="0 0 0 0 0.99609375  0 0 0 0 0.99609375  0 0 0 0 0.99609375  0 0 0 1 0"/></filter></defs><defs v-gra="id"><filter id="4e2bfc66-63ae-4572-9cbd-8f3bf9f54f7c" filterUnits="userSpaceOnUse"><feColorMatrix type="matrix" values="0 0 0 0 0.99609375  0 0 0 0 0.99609375  0 0 0 0 0.99609375  0 0 0 1 0"/></filter><linearGradient x1="0" y1="1" x2="0" y2="0" id="aktCUNU8ZPEGRmEgMK_Ry"><stop offset="0%" stop-color="#00c9ff"/><stop offset="100%" stop-color="#92fe9d"/></linearGradient><filter id="42443b3f1de60f6b6fd3b6a9844b4764" filterUnits="objectBoundingBox"><feColorMatrix type="matrix" values="0 0 0 0 0.99609375  0 0 0 0 0.99609375  0 0 0 0 0.99609375  0 0 0 1 0"/></filter></defs><mask v-gra="im" id="03b7d570-db3a-4358-ad0d-8c303c49184b"><g mask="url(#e41760f2-b04e-4f4e-acea-e7e37d3b3721)" filter="url(#4e2bfc66-63ae-4572-9cbd-8f3bf9f54f7c)"><g><rect fill="#00c9ff" fill-opacity="0" stroke-width="2" x="0" y="0" width="122.5" height="122.59807846277022" class="image-rect"/> <svg x="0" y="0" width="122.5" height="122.59807846277022" filtersec="colorsb3188693421" class="image-svg-svg primary" style="overflow: visible;"><svg fill="#000000" xmlns="http://www.w3.org/2000/svg" viewBox="5.015323638916016 4.975105285644531 89.96699523925781 90.03902435302734" x="0px" y="0px"><path d="m 49.998819,4.9751055 c -24.821867,0 -44.9834934,20.1710675 -44.9834934,45.0195135 0,24.848447 20.1616264,45.019514 44.9834934,45.019514 24.821866,0 44.983493,-20.171067 44.983493,-45.019514 0,-24.848446 -20.161627,-45.0195135 -44.983493,-45.0195135 z m 0,3.0318545 c 23.226908,0 42.019464,18.787331 42.019464,41.987659 0,23.200328 -18.792556,41.987659 -42.019464,41.987659 -23.226908,0 -42.0194648,-18.787331 -42.0194648,-41.987659 0,-23.200328 18.7925568,-41.987659 42.0194648,-41.987659 z" color="#000"/></svg></svg> </g></g></mask>
  </svg>
</svg>


