<svg xmlns="http://www.w3.org/2000/svg" xmlns:xlink="http://www.w3.org/1999/xlink" version="1.0" x="0" y="0" width="2400" height="1556.6193622849485" viewBox="63.00350814819336 55.602991638183596 213.99298370361328 138.79400909423828" preserveAspectRatio="xMidYMid meet" color-interpolation-filters="sRGB"><g><defs><linearGradient id="92" x1="0%" y1="0%" x2="100%" y2="0%"><stop offset="0%" stop-color="#fa71cd"></stop> <stop offset="100%" stop-color="#9b59b6"></stop></linearGradient><linearGradient id="93" x1="0%" y1="0%" x2="100%" y2="0%"><stop offset="0%" stop-color="#f9d423"></stop> <stop offset="100%" stop-color="#f83600"></stop></linearGradient><linearGradient id="94" x1="0%" y1="0%" x2="100%" y2="0%"><stop offset="0%" stop-color="#0064d2"></stop> <stop offset="100%" stop-color="#1cb0f6"></stop></linearGradient><linearGradient id="95" x1="0%" y1="0%" x2="100%" y2="0%"><stop offset="0%" stop-color="#f00978"></stop> <stop offset="100%" stop-color="#3f51b1"></stop></linearGradient><linearGradient id="96" x1="0%" y1="0%" x2="100%" y2="0%"><stop offset="0%" stop-color="#7873f5"></stop> <stop offset="100%" stop-color="#ec77ab"></stop></linearGradient><linearGradient id="97" x1="0%" y1="0%" x2="100%" y2="0%"><stop offset="0%" stop-color="#f9d423"></stop> <stop offset="100%" stop-color="#e14fad"></stop></linearGradient><linearGradient id="98" x1="0%" y1="0%" x2="100%" y2="0%"><stop offset="0%" stop-color="#009efd"></stop> <stop offset="100%" stop-color="#2af598"></stop></linearGradient><linearGradient id="99" x1="0%" y1="0%" x2="100%" y2="0%"><stop offset="0%" stop-color="#ffcc00"></stop> <stop offset="100%" stop-color="#00b140"></stop></linearGradient><linearGradient id="100" x1="0%" y1="0%" x2="100%" y2="0%"><stop offset="0%" stop-color="#d51007"></stop> <stop offset="100%" stop-color="#ff8177"></stop></linearGradient><linearGradient id="102" x1="0%" y1="0%" x2="100%" y2="0%"><stop offset="0%" stop-color="#a2b6df"></stop> <stop offset="100%" stop-color="#0c3483"></stop></linearGradient><linearGradient id="103" x1="0%" y1="0%" x2="100%" y2="0%"><stop offset="0%" stop-color="#7ac5d8"></stop> <stop offset="100%" stop-color="#eea2a2"></stop></linearGradient><linearGradient id="104" x1="0%" y1="0%" x2="100%" y2="0%"><stop offset="0%" stop-color="#00ecbc"></stop> <stop offset="100%" stop-color="#007adf"></stop></linearGradient><linearGradient id="105" x1="0%" y1="0%" x2="100%" y2="0%"><stop offset="0%" stop-color="#b88746"></stop> <stop offset="100%" stop-color="#fdf5a6"></stop></linearGradient></defs><g class="iconmbgsvg" transform="translate(65.10147857666016,63.70096206665039)"><g fill="#00c9ff" hollow-target="textRect"><g transform="translate(43.648521423339844,0)" mask="url(#acd42ce7-6ecc-4b78-b083-0a65ff19d17e)"><g><rect fill="#00c9ff" fill-opacity="0" stroke-width="2" x="0" y="0" width="122.5" height="122.59807846277022" class="image-rect"></rect> <svg x="0" y="0" width="122.5" height="122.59807846277022" filtersec="colorsb260618048" class="image-svg-svg primary" style="overflow: visible;"><svg xmlns="http://www.w3.org/2000/svg" fill="#000000" viewBox="5.015323638916016 4.975105285644531 89.96699523925781 90.03902435302734" x="0px" y="0px"><path d="m 49.998819,4.9751055 c -24.821867,0 -44.9834934,20.1710675 -44.9834934,45.0195135 0,24.848447 20.1616264,45.019514 44.9834934,45.019514 24.821866,0 44.983493,-20.171067 44.983493,-45.019514 0,-24.848446 -20.161627,-45.0195135 -44.983493,-45.0195135 z m 0,3.0318545 c 23.226908,0 42.019464,18.787331 42.019464,41.987659 0,23.200328 -18.792556,41.987659 -42.019464,41.987659 -23.226908,0 -42.0194648,-18.787331 -42.0194648,-41.987659 0,-23.200328 18.7925568,-41.987659 42.0194648,-41.987659 z" color="#000"></path></svg></svg> </g><rect v-gra="id" width="134.5" height="134.59807586669922" transform="translate(-6, -6)" style="pointer-events:none;" fill="url(#Fq7ucXwFxJ-hRzJwZ2j9-)"></rect></g> <g transform="translate(0,38.291038513183594)"><g fill-rule="" class="tp-name" transform="translate(0,0)" fill="url(#81cc43de-6df5-4685-96e7-9d378c6bd8b4)"><g transform="scale(1)"><g><path d="M5.26-29.2L24.61-29.2 24.61-31.5 2.88-31.5 2.88 0 25.15 0 25.15-2.34 5.26-2.34 5.26-14.76 23.71-14.76 23.71-16.96 5.26-16.96ZM30.11-22.23L30.11 0 32.31 0 32.31-12.38C32.31-16.96 35.5-20.43 40.09-20.47 44.91-20.52 48.02-17.82 48.02-12.78L48.02 0 50.22 0 50.22-12.82C50.22-18.99 46.13-22.63 40.19-22.63 37.08-22.59 33.98-21.33 32.27-18.27L32.27-22.23ZM72.72-4.59C70.92-2.79 68.49-1.84 66.1-1.84 61.06-1.84 56.83-5.13 56.83-11.12 56.83-17.1 61.06-20.38 66.1-20.38 68.49-20.38 70.97-19.53 72.76-17.73L74.2-19.13C71.95-21.33 69.03-22.45 66.1-22.45 59.67-22.45 54.67-18.13 54.67-11.12 54.67-4.09 59.85 0.22 66.1 0.22 69.03 0.22 71.95-0.85 74.2-3.1ZM89.64 0.32C93.19 0.32 97.06-1.13 99.22-3.96L97.65-5.22C95.98-3.01 92.56-1.84 89.64-1.84 85.05-1.84 81.05-4.86 80.59-10.08L100.62-10.08C101.47-18.77 95.89-22.59 89.64-22.59 83.38-22.59 78.34-17.77 78.34-11.12 78.34-4.05 83.38 0.32 89.64 0.32ZM80.59-12.01C81.09-17.46 85.05-20.56 89.64-20.56 94.99-20.56 98.59-17.5 98.64-12.01ZM106.33-31.5L106.33 0 108.54 0 108.54-31.5ZM133.88-22.23L133.88-17.37C132.03-20.84 128.38-22.5 124.78-22.5 118.58-22.5 113.49-17.91 113.49-11.12 113.49-4.32 118.58 0.36 124.78 0.36 128.38 0.36 131.72-1.26 133.88-4.72L133.88 0 136.08 0C136.08-7.42 136.08-14.8 136.08-22.23ZM124.78-20.38C137.16-20.38 137.16-1.8 124.78-1.8 119.75-1.8 115.7-5.54 115.7-11.12 115.7-16.7 119.75-20.38 124.78-20.38ZM152.1-20.47C157.23-20.47 161.19-16.7 161.19-11.16 161.19-5.63 157.32-1.8 152.1-1.8 147.1-1.8 143.01-4.95 143.01-11.12 143.01-17.37 147.1-20.47 152.1-20.47ZM161.24-31.5L161.24-17.37C159.44-20.97 155.84-22.59 152.01-22.59 145.8-22.59 140.85-18.45 140.85-11.12 140.85-3.73 145.75 0.36 151.97 0.36 155.75 0.36 159.39-1.53 161.24-4.91L161.24 0 163.4 0 163.4-31.5ZM189.31 0L189.31-22.27 187.11-22.27 187.11-9.9C187.11-5.31 183.92-1.84 179.33-1.8 174.51-1.75 171.41-4.46 171.41-9.49L171.41-22.27 169.2-22.27 169.2-9.45C169.2-3.28 173.3 0.36 179.24 0.36 182.34 0.32 185.45-0.94 187.16-4L187.16 0ZM211.73-19.62C209.52-21.69 206.69-22.59 203.45-22.59 198.95-22.63 194.58-20.75 194.63-16.38 194.67-11.92 198.95-11.12 203.27-10.39 206.91-9.81 210.6-9.18 210.51-5.98 210.38-2.48 206.28-1.75 203.58-1.75 200.61-1.75 197.28-2.88 195.44-5.54L193.81-4.09C195.75-1.13 199.62 0.36 203.53 0.36 207.45 0.36 212.54-0.94 212.67-5.85 212.9-11.03 207.45-11.7 203.49-12.38 200.7-12.87 196.83-13.46 196.74-16.43 196.65-19.26 199.98-20.56 203.45-20.52 205.92-20.52 208.13-20.16 210.38-18.18Z" transform="translate(-2.880000114440918, 31.5)"></path></g> </g></g> <g fill-rule="" class="tp-slogan" fill="#ffffff" transform="translate(72.18852233886719,36.86000061035156)"> <g transform="scale(1, 1)"><g transform="scale(1)"><path d="M1.08 0L1.08-7.87L2.08-7.87L2.08-0.85L5.52-0.85L5.52 0L1.08 0ZM10.93-3.20L13.30-3.20L12.92-4.40Q12.71-5.06 12.52-5.72Q12.32-6.37 12.13-7.06L12.13-7.06L12.08-7.06Q11.90-6.37 11.71-5.72Q11.52-5.06 11.30-4.40L11.30-4.40L10.93-3.20ZM14.29 0L13.55-2.40L10.68-2.40L9.92 0L8.90 0L11.57-7.87L12.70-7.87L15.36 0L14.29 0ZM19.48 0L19.48-7.87L21.82-7.87Q22.42-7.87 22.91-7.76Q23.41-7.66 23.77-7.43Q24.12-7.20 24.32-6.83Q24.52-6.47 24.52-5.95L24.52-5.95Q24.52-5.36 24.18-4.89Q23.84-4.42 23.15-4.24L23.15-4.24L23.15-4.19Q24.01-4.06 24.49-3.59Q24.97-3.12 24.97-2.30L24.97-2.30Q24.97-1.73 24.76-1.30Q24.54-0.86 24.14-0.58Q23.75-0.29 23.20-0.14Q22.64 0 21.98 0L21.98 0L19.48 0ZM20.47-4.51L21.64-4.51Q22.66-4.51 23.09-4.86Q23.53-5.21 23.53-5.87L23.53-5.87Q23.53-6.52 23.07-6.80Q22.61-7.08 21.68-7.08L21.68-7.08L20.47-7.08L20.47-4.51ZM20.47-0.79L21.84-0.79Q22.86-0.79 23.42-1.17Q23.99-1.55 23.99-2.35L23.99-2.35Q23.99-3.08 23.44-3.43Q22.88-3.77 21.84-3.77L21.84-3.77L20.47-3.77L20.47-0.79ZM28.79-1.02L29.39-1.72Q29.81-1.27 30.38-1.00Q30.95-0.73 31.56-0.73L31.56-0.73Q32.34-0.73 32.77-1.09Q33.20-1.44 33.20-2.02L33.20-2.02Q33.20-2.32 33.10-2.53Q33-2.74 32.83-2.89Q32.65-3.04 32.41-3.16Q32.17-3.28 31.90-3.41L31.90-3.41L30.77-3.90Q30.49-4.02 30.20-4.19Q29.92-4.36 29.69-4.60Q29.46-4.84 29.32-5.17Q29.17-5.50 29.17-5.93L29.17-5.93Q29.17-6.37 29.36-6.76Q29.54-7.14 29.87-7.42Q30.20-7.70 30.65-7.86Q31.10-8.02 31.64-8.02L31.64-8.02Q32.35-8.02 32.95-7.75Q33.55-7.48 33.97-7.04L33.97-7.04L33.43-6.40Q33.07-6.74 32.63-6.94Q32.20-7.14 31.64-7.14L31.64-7.14Q30.98-7.14 30.58-6.83Q30.18-6.53 30.18-5.99L30.18-5.99Q30.18-5.70 30.29-5.50Q30.41-5.30 30.60-5.15Q30.79-5.00 31.02-4.89Q31.25-4.78 31.49-4.68L31.49-4.68L32.60-4.20Q32.94-4.06 33.24-3.87Q33.54-3.68 33.76-3.44Q33.97-3.19 34.10-2.86Q34.22-2.53 34.22-2.10L34.22-2.10Q34.22-1.63 34.04-1.22Q33.85-0.82 33.50-0.51Q33.16-0.20 32.66-0.03Q32.17 0.14 31.55 0.14L31.55 0.14Q30.72 0.14 30.01-0.17Q29.30-0.48 28.79-1.02L28.79-1.02ZM44.20 0L44.20-7.87L45.19-7.87L45.19 0L44.20 0ZM50.35 0L50.35-7.87L51.38-7.87L54.23-2.93L55.08-1.30L55.13-1.30Q55.09-1.90 55.05-2.54Q55.01-3.18 55.01-3.80L55.01-3.80L55.01-7.87L55.96-7.87L55.96 0L54.92 0L52.07-4.96L51.22-6.58L51.17-6.58Q51.22-5.98 51.26-5.36Q51.30-4.74 51.30-4.12L51.30-4.12L51.30 0L50.35 0ZM60.66-3.94L60.66-3.94Q60.66-4.88 60.92-5.64Q61.19-6.40 61.66-6.92Q62.12-7.45 62.77-7.73Q63.41-8.02 64.16-8.02L64.16-8.02Q64.88-8.02 65.42-7.72Q65.96-7.43 66.31-7.04L66.31-7.04L65.75-6.41Q65.44-6.74 65.06-6.94Q64.68-7.14 64.18-7.14L64.18-7.14Q63.61-7.14 63.16-6.92Q62.70-6.70 62.38-6.28Q62.05-5.87 61.87-5.28Q61.69-4.69 61.69-3.96L61.69-3.96Q61.69-3.22 61.87-2.62Q62.04-2.03 62.35-1.61Q62.66-1.19 63.11-0.96Q63.56-0.73 64.13-0.73L64.13-0.73Q64.70-0.73 65.13-0.96Q65.56-1.19 65.94-1.61L65.94-1.61L66.50-1.00Q66.04-0.46 65.45-0.16Q64.86 0.14 64.10 0.14L64.10 0.14Q63.36 0.14 62.73-0.13Q62.10-0.41 61.64-0.93Q61.18-1.45 60.92-2.21Q60.66-2.98 60.66-3.94Z" transform="translate(-1.08, 8.016)"></path></g></g></g></g></g></g><mask id="528e60c2-af08-4f03-9462-f60f9675b71d"><g fill="white"><g><rect fill-opacity="1" stroke-width="2" x="0" y="0" width="122.5" height="122.59807846277022" class="image-rect"></rect> <svg x="0" y="0" width="122.5" height="122.59807846277022" filtersec="colorsb260618048" class="image-svg-svg primary" style="overflow: visible;"><svg xmlns="http://www.w3.org/2000/svg" viewBox="5.015323638916016 4.975105285644531 89.96699523925781 90.03902435302734" x="0px" y="0px"><path d="m 49.998819,4.9751055 c -24.821867,0 -44.9834934,20.1710675 -44.9834934,45.0195135 0,24.848447 20.1616264,45.019514 44.9834934,45.019514 24.821866,0 44.983493,-20.171067 44.983493,-45.019514 0,-24.848446 -20.161627,-45.0195135 -44.983493,-45.0195135 z m 0,3.0318545 c 23.226908,0 42.019464,18.787331 42.019464,41.987659 0,23.200328 -18.792556,41.987659 -42.019464,41.987659 -23.226908,0 -42.0194648,-18.787331 -42.0194648,-41.987659 0,-23.200328 18.7925568,-41.987659 42.0194648,-41.987659 z" color="#000"></path></svg></svg> </g></g> <g transform="translate(-43.648521423339844,38.291038513183594)"><rect fill="black" fill-opacity="1" x="-3.5" y="-3.5" width="216.7970428466797" height="38.86000061035156"></rect><rect fill="black" fill-opacity="1" x="-3.5" y="-3.5" transform="translate(72.18852233886719,36.86000061035156)" width="72.41999816894531" height="15.160000801086426"></rect></g><g transform="translate(-43.648521423339844,38.291038513183594)" fill="black"><g fill-rule="" class="tp-name" transform="translate(0,0)"><g transform="scale(1)"><g><path d="M5.26-29.2L24.61-29.2 24.61-31.5 2.88-31.5 2.88 0 25.15 0 25.15-2.34 5.26-2.34 5.26-14.76 23.71-14.76 23.71-16.96 5.26-16.96ZM30.11-22.23L30.11 0 32.31 0 32.31-12.38C32.31-16.96 35.5-20.43 40.09-20.47 44.91-20.52 48.02-17.82 48.02-12.78L48.02 0 50.22 0 50.22-12.82C50.22-18.99 46.13-22.63 40.19-22.63 37.08-22.59 33.98-21.33 32.27-18.27L32.27-22.23ZM72.72-4.59C70.92-2.79 68.49-1.84 66.1-1.84 61.06-1.84 56.83-5.13 56.83-11.12 56.83-17.1 61.06-20.38 66.1-20.38 68.49-20.38 70.97-19.53 72.76-17.73L74.2-19.13C71.95-21.33 69.03-22.45 66.1-22.45 59.67-22.45 54.67-18.13 54.67-11.12 54.67-4.09 59.85 0.22 66.1 0.22 69.03 0.22 71.95-0.85 74.2-3.1ZM89.64 0.32C93.19 0.32 97.06-1.13 99.22-3.96L97.65-5.22C95.98-3.01 92.56-1.84 89.64-1.84 85.05-1.84 81.05-4.86 80.59-10.08L100.62-10.08C101.47-18.77 95.89-22.59 89.64-22.59 83.38-22.59 78.34-17.77 78.34-11.12 78.34-4.05 83.38 0.32 89.64 0.32ZM80.59-12.01C81.09-17.46 85.05-20.56 89.64-20.56 94.99-20.56 98.59-17.5 98.64-12.01ZM106.33-31.5L106.33 0 108.54 0 108.54-31.5ZM133.88-22.23L133.88-17.37C132.03-20.84 128.38-22.5 124.78-22.5 118.58-22.5 113.49-17.91 113.49-11.12 113.49-4.32 118.58 0.36 124.78 0.36 128.38 0.36 131.72-1.26 133.88-4.72L133.88 0 136.08 0C136.08-7.42 136.08-14.8 136.08-22.23ZM124.78-20.38C137.16-20.38 137.16-1.8 124.78-1.8 119.75-1.8 115.7-5.54 115.7-11.12 115.7-16.7 119.75-20.38 124.78-20.38ZM152.1-20.47C157.23-20.47 161.19-16.7 161.19-11.16 161.19-5.63 157.32-1.8 152.1-1.8 147.1-1.8 143.01-4.95 143.01-11.12 143.01-17.37 147.1-20.47 152.1-20.47ZM161.24-31.5L161.24-17.37C159.44-20.97 155.84-22.59 152.01-22.59 145.8-22.59 140.85-18.45 140.85-11.12 140.85-3.73 145.75 0.36 151.97 0.36 155.75 0.36 159.39-1.53 161.24-4.91L161.24 0 163.4 0 163.4-31.5ZM189.31 0L189.31-22.27 187.11-22.27 187.11-9.9C187.11-5.31 183.92-1.84 179.33-1.8 174.51-1.75 171.41-4.46 171.41-9.49L171.41-22.27 169.2-22.27 169.2-9.45C169.2-3.28 173.3 0.36 179.24 0.36 182.34 0.32 185.45-0.94 187.16-4L187.16 0ZM211.73-19.62C209.52-21.69 206.69-22.59 203.45-22.59 198.95-22.63 194.58-20.75 194.63-16.38 194.67-11.92 198.95-11.12 203.27-10.39 206.91-9.81 210.6-9.18 210.51-5.98 210.38-2.48 206.28-1.75 203.58-1.75 200.61-1.75 197.28-2.88 195.44-5.54L193.81-4.09C195.75-1.13 199.62 0.36 203.53 0.36 207.45 0.36 212.54-0.94 212.67-5.85 212.9-11.03 207.45-11.7 203.49-12.38 200.7-12.87 196.83-13.46 196.74-16.43 196.65-19.26 199.98-20.56 203.45-20.52 205.92-20.52 208.13-20.16 210.38-18.18Z" transform="translate(-2.880000114440918, 31.5)"></path></g> </g></g> <g fill-rule="" class="tp-slogan" transform="translate(72.18852233886719,36.86000061035156)"> <g transform="scale(1, 1)"><g transform="scale(1)"><path d="M1.08 0L1.08-7.87L2.08-7.87L2.08-0.85L5.52-0.85L5.52 0L1.08 0ZM10.93-3.20L13.30-3.20L12.92-4.40Q12.71-5.06 12.52-5.72Q12.32-6.37 12.13-7.06L12.13-7.06L12.08-7.06Q11.90-6.37 11.71-5.72Q11.52-5.06 11.30-4.40L11.30-4.40L10.93-3.20ZM14.29 0L13.55-2.40L10.68-2.40L9.92 0L8.90 0L11.57-7.87L12.70-7.87L15.36 0L14.29 0ZM19.48 0L19.48-7.87L21.82-7.87Q22.42-7.87 22.91-7.76Q23.41-7.66 23.77-7.43Q24.12-7.20 24.32-6.83Q24.52-6.47 24.52-5.95L24.52-5.95Q24.52-5.36 24.18-4.89Q23.84-4.42 23.15-4.24L23.15-4.24L23.15-4.19Q24.01-4.06 24.49-3.59Q24.97-3.12 24.97-2.30L24.97-2.30Q24.97-1.73 24.76-1.30Q24.54-0.86 24.14-0.58Q23.75-0.29 23.20-0.14Q22.64 0 21.98 0L21.98 0L19.48 0ZM20.47-4.51L21.64-4.51Q22.66-4.51 23.09-4.86Q23.53-5.21 23.53-5.87L23.53-5.87Q23.53-6.52 23.07-6.80Q22.61-7.08 21.68-7.08L21.68-7.08L20.47-7.08L20.47-4.51ZM20.47-0.79L21.84-0.79Q22.86-0.79 23.42-1.17Q23.99-1.55 23.99-2.35L23.99-2.35Q23.99-3.08 23.44-3.43Q22.88-3.77 21.84-3.77L21.84-3.77L20.47-3.77L20.47-0.79ZM28.79-1.02L29.39-1.72Q29.81-1.27 30.38-1.00Q30.95-0.73 31.56-0.73L31.56-0.73Q32.34-0.73 32.77-1.09Q33.20-1.44 33.20-2.02L33.20-2.02Q33.20-2.32 33.10-2.53Q33-2.74 32.83-2.89Q32.65-3.04 32.41-3.16Q32.17-3.28 31.90-3.41L31.90-3.41L30.77-3.90Q30.49-4.02 30.20-4.19Q29.92-4.36 29.69-4.60Q29.46-4.84 29.32-5.17Q29.17-5.50 29.17-5.93L29.17-5.93Q29.17-6.37 29.36-6.76Q29.54-7.14 29.87-7.42Q30.20-7.70 30.65-7.86Q31.10-8.02 31.64-8.02L31.64-8.02Q32.35-8.02 32.95-7.75Q33.55-7.48 33.97-7.04L33.97-7.04L33.43-6.40Q33.07-6.74 32.63-6.94Q32.20-7.14 31.64-7.14L31.64-7.14Q30.98-7.14 30.58-6.83Q30.18-6.53 30.18-5.99L30.18-5.99Q30.18-5.70 30.29-5.50Q30.41-5.30 30.60-5.15Q30.79-5.00 31.02-4.89Q31.25-4.78 31.49-4.68L31.49-4.68L32.60-4.20Q32.94-4.06 33.24-3.87Q33.54-3.68 33.76-3.44Q33.97-3.19 34.10-2.86Q34.22-2.53 34.22-2.10L34.22-2.10Q34.22-1.63 34.04-1.22Q33.85-0.82 33.50-0.51Q33.16-0.20 32.66-0.03Q32.17 0.14 31.55 0.14L31.55 0.14Q30.72 0.14 30.01-0.17Q29.30-0.48 28.79-1.02L28.79-1.02ZM44.20 0L44.20-7.87L45.19-7.87L45.19 0L44.20 0ZM50.35 0L50.35-7.87L51.38-7.87L54.23-2.93L55.08-1.30L55.13-1.30Q55.09-1.90 55.05-2.54Q55.01-3.18 55.01-3.80L55.01-3.80L55.01-7.87L55.96-7.87L55.96 0L54.92 0L52.07-4.96L51.22-6.58L51.17-6.58Q51.22-5.98 51.26-5.36Q51.30-4.74 51.30-4.12L51.30-4.12L51.30 0L50.35 0ZM60.66-3.94L60.66-3.94Q60.66-4.88 60.92-5.64Q61.19-6.40 61.66-6.92Q62.12-7.45 62.77-7.73Q63.41-8.02 64.16-8.02L64.16-8.02Q64.88-8.02 65.42-7.72Q65.96-7.43 66.31-7.04L66.31-7.04L65.75-6.41Q65.44-6.74 65.06-6.94Q64.68-7.14 64.18-7.14L64.18-7.14Q63.61-7.14 63.16-6.92Q62.70-6.70 62.38-6.28Q62.05-5.87 61.87-5.28Q61.69-4.69 61.69-3.96L61.69-3.96Q61.69-3.22 61.87-2.62Q62.04-2.03 62.35-1.61Q62.66-1.19 63.11-0.96Q63.56-0.73 64.13-0.73L64.13-0.73Q64.70-0.73 65.13-0.96Q65.56-1.19 65.94-1.61L65.94-1.61L66.50-1.00Q66.04-0.46 65.45-0.16Q64.86 0.14 64.10 0.14L64.10 0.14Q63.36 0.14 62.73-0.13Q62.10-0.41 61.64-0.93Q61.18-1.45 60.92-2.21Q60.66-2.98 60.66-3.94Z" transform="translate(-1.08, 8.016)"></path></g></g></g></g></mask><defs v-gra="od"><linearGradient x1="0" y1="1" x2="0" y2="0" id="81cc43de-6df5-4685-96e7-9d378c6bd8b4"><stop offset="0%" stop-color="#00c9ff"></stop><stop offset="100%" stop-color="#92fe9d"></stop></linearGradient><filter id="42443b3f1de60f6b6fd3b6a9844b4764" filterUnits="objectBoundingBox"><feColorMatrix type="matrix" values="0 0 0 0 0.99609375  0 0 0 0 0.99609375  0 0 0 0 0.99609375  0 0 0 1 0"></feColorMatrix></filter></defs><defs v-gra="id"><filter id="0d3622f1-ff10-4e3c-b931-7aaa7572554e" filterUnits="userSpaceOnUse"><feColorMatrix type="matrix" values="0 0 0 0 0.99609375  0 0 0 0 0.99609375  0 0 0 0 0.99609375  0 0 0 1 0"></feColorMatrix></filter><linearGradient x1="0" y1="1" x2="0" y2="0" id="Fq7ucXwFxJ-hRzJwZ2j9-"><stop offset="0%" stop-color="#00c9ff"></stop><stop offset="100%" stop-color="#92fe9d"></stop></linearGradient><filter id="42443b3f1de60f6b6fd3b6a9844b4764" filterUnits="objectBoundingBox"><feColorMatrix type="matrix" values="0 0 0 0 0.99609375  0 0 0 0 0.99609375  0 0 0 0 0.99609375  0 0 0 1 0"></feColorMatrix></filter></defs><mask v-gra="im" id="acd42ce7-6ecc-4b78-b083-0a65ff19d17e"><g mask="url(#528e60c2-af08-4f03-9462-f60f9675b71d)" filter="url(#0d3622f1-ff10-4e3c-b931-7aaa7572554e)"><g><rect fill="#00c9ff" fill-opacity="0" stroke-width="2" x="0" y="0" width="122.5" height="122.59807846277022" class="image-rect"></rect> <svg x="0" y="0" width="122.5" height="122.59807846277022" filtersec="colorsb260618048" class="image-svg-svg primary" style="overflow: visible;"><svg xmlns="http://www.w3.org/2000/svg" fill="#000000" viewBox="5.015323638916016 4.975105285644531 89.96699523925781 90.03902435302734" x="0px" y="0px"><path d="m 49.998819,4.9751055 c -24.821867,0 -44.9834934,20.1710675 -44.9834934,45.0195135 0,24.848447 20.1616264,45.019514 44.9834934,45.019514 24.821866,0 44.983493,-20.171067 44.983493,-45.019514 0,-24.848446 -20.161627,-45.0195135 -44.983493,-45.0195135 z m 0,3.0318545 c 23.226908,0 42.019464,18.787331 42.019464,41.987659 0,23.200328 -18.792556,41.987659 -42.019464,41.987659 -23.226908,0 -42.0194648,-18.787331 -42.0194648,-41.987659 0,-23.200328 18.7925568,-41.987659 42.0194648,-41.987659 z" color="#000"></path></svg></svg> </g></g></mask></g></svg>